<?xml version="1.0" encoding="UTF-8"?>
<svg version="1.1" xmlns="http://www.w3.org/2000/svg" width="500" height="500">
<path d="M0 0 C165 0 330 0 500 0 C500 165 500 330 500 500 C335 500 170 500 0 500 C0 335 0 170 0 0 Z " fill="#FEFEFE" transform="translate(0,0)"/>
<path d="M0 0 C6.85835447 4.92862736 10.35588701 10.06766104 13 18 C13.0892614 19.40143156 13.12376247 20.80674549 13.12304783 22.21101665 C13.12503888 23.07390511 13.12702993 23.93679357 13.12908131 24.82583016 C13.12616847 25.77426492 13.12325563 26.72269967 13.12025452 27.69987488 C13.12153615 29.21055061 13.12153615 29.21055061 13.12284368 30.75174505 C13.12449687 34.14205034 13.1189797 37.53230665 13.11352539 40.92260742 C13.11324346 43.34666442 13.11340137 45.7707215 13.1139679 48.19477844 C13.11419596 53.42165288 13.11135103 58.64851616 13.10573006 63.87538719 C13.09760833 71.43259602 13.09499914 78.98979881 13.09374207 86.54701153 C13.09155261 98.80763025 13.08489539 111.06824232 13.07543945 123.32885742 C13.0662626 135.2399899 13.0591831 147.15112056 13.05493164 159.06225586 C13.05453756 160.16327497 13.05453756 160.16327497 13.05413551 161.28653689 C13.05283049 164.96880651 13.05156677 168.65107614 13.05032361 172.33334577 C13.0399543 202.88890194 13.0222646 233.44445005 13 264 C13.7818441 264.3042754 14.5636882 264.6085508 15.36922455 264.92204666 C17.90034538 265.95916678 19.92507154 267.13354043 22.18164062 268.66699219 C22.97437378 269.20225525 23.76710693 269.73751831 24.5838623 270.28900146 C25.43275024 270.86909973 26.28163818 271.449198 27.15625 272.046875 C28.05380005 272.65452698 28.9513501 273.26217896 29.87609863 273.88824463 C32.75376559 275.83773427 35.62701109 277.79362446 38.5 279.75 C41.30449765 281.65383272 44.10990959 283.55630843 46.91577148 285.45812988 C48.78623151 286.72685277 50.65553421 287.99728354 52.52368164 289.26940918 C57.29274665 292.5121995 62.08106959 295.71836403 66.9140625 298.86523438 C67.86768677 299.4893219 68.82131104 300.11340942 69.80383301 300.75640869 C71.61004627 301.93580154 73.42120703 303.10766618 75.23815918 304.27044678 C82.47509929 309.00729778 88.26152729 314.56608671 91 323 C92.30623207 331.0671925 90.46595648 337.25225701 86 344 C83.4375 346.9375 83.4375 346.9375 81 349 C80.360625 349.556875 79.72125 350.11375 79.0625 350.6875 C72.84259356 354.64562228 66.15191941 354.85827235 59 354 C48.54684871 350.31938307 39.29162783 343.02407159 30.23681641 336.81396484 C25.47081736 333.54621563 20.68774412 330.30360853 15.90625 327.05859375 C14.91955322 326.38819061 13.93285645 325.71778748 12.91625977 325.02706909 C2.67844962 318.08148911 -7.65513379 311.28462608 -18 304.5 C-34.94495402 293.38046733 -51.78184207 282.10964828 -68.54296875 270.71484375 C-75.95497078 265.68452179 -83.37482069 260.70260878 -91 256 C-99.51958175 250.74579439 -107.78830771 245.13895426 -116.06494141 239.51220703 C-131.95855813 228.7112531 -147.93526436 218.04450385 -164 207.5 C-181.26230119 196.16841732 -198.41583857 184.68358431 -215.50976562 173.09960938 C-216.379767 172.51055817 -217.24976837 171.92150696 -218.14613342 171.31460571 C-219.76519245 170.21804161 -221.38344521 169.12028572 -223.00071716 168.02108765 C-223.72098587 167.53314728 -224.44125458 167.04520691 -225.18334961 166.54248047 C-225.80342392 166.12143036 -226.42349823 165.70038025 -227.06236267 165.26657104 C-229.33760276 163.77931996 -231.66653535 162.39370362 -234 161 C-234.00146656 162.10306645 -234.00293312 163.20613291 -234.00444412 164.34262562 C-234.04106371 191.20141786 -234.10054566 218.06008565 -234.18390274 244.9187746 C-234.22368637 257.90752172 -234.25608236 270.89620832 -234.27099609 283.88500977 C-234.28401603 295.20804534 -234.31098968 306.5309477 -234.35461307 317.85390824 C-234.37721991 323.84752812 -234.39291113 329.84098374 -234.39188385 335.83465004 C-234.3911368 341.48095359 -234.40910631 347.12689411 -234.44116783 352.77310371 C-234.44965689 354.84060255 -234.45142355 356.90814216 -234.44580269 358.97565079 C-234.41831465 370.64463606 -234.50250555 380.61125911 -240.75 390.875 C-248.05537463 397.77452049 -255.1901919 399.6548889 -265.125 399.3984375 C-271.94975386 398.6966987 -276.5138451 395.94976165 -280.90625 390.73828125 C-284.41329915 385.73411914 -286.12452949 381.73093028 -286.12584114 375.5962286 C-286.12844889 374.71578221 -286.13105664 373.83533583 -286.13374341 372.92820925 C-286.13151268 371.96527895 -286.12928196 371.00234865 -286.12698364 370.01023865 C-286.12932363 368.47082968 -286.12932363 368.47082968 -286.13171089 366.90032154 C-286.13570919 363.45102997 -286.13253574 360.00178216 -286.12939453 356.55249023 C-286.13074908 354.08389256 -286.13252932 351.61529509 -286.13470459 349.146698 C-286.13879762 343.13170345 -286.13818952 337.11672618 -286.13529195 331.10173231 C-286.13303489 326.21436145 -286.13272671 321.3269941 -286.13381577 316.43962288 C-286.133969 315.74441534 -286.13412223 315.04920779 -286.13428011 314.33293336 C-286.13459983 312.92070968 -286.13492404 311.50848601 -286.1352527 310.09626234 C-286.13810502 296.8504479 -286.13482424 283.60464037 -286.12945233 270.35882706 C-286.12498353 258.98766835 -286.12576133 247.61651985 -286.13037109 236.24536133 C-286.13571953 223.04585781 -286.13783139 209.84636035 -286.13475883 196.64685589 C-286.13444027 195.24009105 -286.1341259 193.8333262 -286.13381577 192.42656136 C-286.13358435 191.38827697 -286.13358435 191.38827697 -286.13334826 190.32901714 C-286.13248399 185.44571187 -286.13394404 180.56241044 -286.13629532 175.67910576 C-286.13938856 169.11036872 -286.13719439 162.54164803 -286.13140106 155.97291183 C-286.13007467 153.55694549 -286.13046555 151.14097753 -286.13266373 148.72501183 C-286.13537987 145.43757819 -286.13198832 142.1502073 -286.12698364 138.86277771 C-286.13032973 137.41503618 -286.13032973 137.41503618 -286.13374341 135.93804735 C-286.13113566 135.06020871 -286.12852791 134.18237007 -286.12584114 133.27793026 C-286.12567879 132.51875929 -286.12551644 131.75958832 -286.12534916 130.97741216 C-286 129 -286 129 -285 126 C-285.73777176 125.72566132 -286.47554352 125.45132263 -287.235672 125.16867065 C-289.81935919 124.07636923 -291.91584742 122.87295506 -294.22924805 121.30126953 C-295.03166428 120.75955109 -295.83408051 120.21783264 -296.66081238 119.65969849 C-297.51911148 119.07332611 -298.37741058 118.48695374 -299.26171875 117.8828125 C-300.16638382 117.27041718 -301.07104889 116.65802185 -302.00312805 116.02706909 C-304.9009498 114.06413945 -307.7943391 112.09479115 -310.6875 110.125 C-313.52464952 108.1994711 -316.36270196 106.27528244 -319.20120239 104.35174561 C-321.07405672 103.08134863 -322.94554042 101.80892867 -324.81564331 100.53448486 C-329.23463579 97.52714265 -333.66768534 94.55207216 -338.16259766 91.65917969 C-338.97340286 91.13331268 -339.78420807 90.60744568 -340.61958313 90.06564331 C-342.11312471 89.10019929 -343.61275947 88.14407503 -345.12004089 87.20022583 C-352.30592934 82.53792263 -358.58036622 76.39755253 -361 68 C-362.10609537 59.94663148 -360.69551515 53.65765071 -356 47 C-350.44459152 40.82861526 -344.34079201 37.02613228 -335.9375 36.375 C-322.46141416 37.00988613 -309.78387556 47.90561213 -299.07824707 55.26669312 C-294.37961617 58.49669686 -289.66124966 61.69768587 -284.9453125 64.90234375 C-283.97057983 65.56573257 -282.99584717 66.2291214 -281.99157715 66.91261292 C-271.14992724 74.28041879 -260.20578689 81.49096196 -249.25 88.6875 C-248.33659851 89.2876593 -247.42319702 89.8878186 -246.4821167 90.50616455 C-241.26439937 93.934493 -241.26439937 93.934493 -236.04611206 97.36195374 C-230.58383124 100.95125373 -225.13982501 104.56674168 -219.70617676 108.19918823 C-214.62727828 111.59063703 -209.52673582 114.94856634 -204.421875 118.30078125 C-185.70770747 130.59339237 -167.04143824 142.94804966 -148.5 155.5 C-129.2370526 168.53973131 -109.83227662 181.35580869 -90.39387512 194.13200378 C-79.77441268 201.1153702 -69.20235958 208.16920067 -58.63818359 215.23583984 C-54.76160382 217.82811871 -50.88088782 220.41417722 -47 223 C-45.87497629 223.74996444 -44.74997347 224.4999602 -43.625 225.25 C-42.325625 226.11625 -42.325625 226.11625 -41 227 C-40.01 227.66 -39.02 228.32 -38 229 C-38.00368717 227.90447563 -38.00737434 226.80895126 -38.01117325 225.68022919 C-38.09997414 199.02288253 -38.16570431 172.36555506 -38.20724869 145.70809174 C-38.22787327 132.81673424 -38.25599208 119.92547446 -38.30175781 107.03417969 C-38.34162852 95.79803925 -38.36743356 84.56196958 -38.37635398 73.32576036 C-38.38156827 67.37634044 -38.39382199 61.42712298 -38.42292023 55.47776794 C-38.45009278 49.87669342 -38.45844115 44.27590454 -38.45243073 38.67477036 C-38.45353012 36.62049176 -38.46147287 34.56620351 -38.4768219 32.51198196 C-38.49677841 29.70307355 -38.4919184 26.89523792 -38.48101807 24.08630371 C-38.49266943 23.27694351 -38.5043208 22.4675833 -38.51632524 21.63369703 C-38.44065584 14.39972116 -35.90172447 8.30216887 -30.6875 3.1875 C-22.3911281 -4.46262819 -9.8530075 -5.98908299 0 0 Z " fill="#FF3232" transform="translate(385,42)"/>
<path d="M0 0 C3.83564288 0.01648557 5.0367901 0.17604566 8.375 2.3125 C8.99375 2.9725 9.6125 3.6325 10.25 4.3125 C9.7520163 8.04737777 9.37508244 10.12487635 7.25 13.3125 C7.745 14.26125 8.24 15.21 8.75 16.1875 C10.25 19.3125 10.25 19.3125 10.25 21.3125 C7.25 20.3125 7.25 20.3125 5.4375 16.8125 C4.49467912 14.89841202 4.49467912 14.89841202 3.25 13.3125 C0.12311572 12.26074448 0.12311572 12.26074448 -2.75 12.3125 C-2.75 15.2825 -2.75 18.2525 -2.75 21.3125 C-3.74 21.3125 -4.73 21.3125 -5.75 21.3125 C-5.77888146 18.00001813 -5.79675799 14.68756833 -5.8125 11.375 C-5.82087891 10.42947266 -5.82925781 9.48394531 -5.83789062 8.50976562 C-5.84111328 7.61064453 -5.84433594 6.71152344 -5.84765625 5.78515625 C-5.85289307 4.95250244 -5.85812988 4.11984863 -5.86352539 3.26196289 C-5.6417646 -0.54612287 -3.2994315 0.0927355 0 0 Z " fill="#353F67" transform="translate(204.75,454.6875)"/>
<path d="M0 0 C3 1 3 1 4.07495117 2.73413086 C4.39439697 3.47026611 4.71384277 4.20640137 5.04296875 4.96484375 C5.39423828 5.76470703 5.74550781 6.56457031 6.10742188 7.38867188 C6.46384766 8.22978516 6.82027344 9.07089844 7.1875 9.9375 C7.55552734 10.77474609 7.92355469 11.61199219 8.30273438 12.47460938 C11 18.69483418 11 18.69483418 11 21 C10.01 21 9.02 21 8 21 C7.505 18.525 7.505 18.525 7 16 C3.04 16 -0.92 16 -5 16 C-5.99 18.475 -5.99 18.475 -7 21 C-7.66 21 -8.32 21 -9 21 C-6.76686274 13.55620912 -3.59727921 6.88023305 0 0 Z " fill="#303B63" transform="translate(177,455)"/>
<path d="M0 0 C3.93639176 1.31213059 4.28653597 2.82801522 6.1875 6.4375 C6.71730469 7.42621094 7.24710938 8.41492188 7.79296875 9.43359375 C9 12 9 12 9 14 C9.66 14 10.32 14 11 14 C11.3403125 13.0409375 11.3403125 13.0409375 11.6875 12.0625 C13.48565826 7.86679739 15.73904021 3.96099444 18 0 C18.66 0 19.32 0 20 0 C20 6.93 20 13.86 20 21 C19.34 21 18.68 21 18 21 C17.67 16.38 17.34 11.76 17 7 C15.02 10.63 13.04 14.26 11 18 C10.34 18 9.68 18 9 18 C7.02 14.37 5.04 10.74 3 7 C2.67 11.62 2.34 16.24 2 21 C1.34 21 0.68 21 0 21 C0 14.07 0 7.14 0 0 Z " fill="#232F59" transform="translate(136,455)"/>
<path d="M0 0 C4.5 2.25 4.5 2.25 6.578125 5.2578125 C7.01640625 5.88300781 7.4546875 6.50820313 7.90625 7.15234375 C8.57140625 8.12880859 8.57140625 8.12880859 9.25 9.125 C9.70890625 9.78371094 10.1678125 10.44242187 10.640625 11.12109375 C11.76821231 12.7420005 12.88516391 14.37029686 14 16 C14.33 10.72 14.66 5.44 15 0 C15.66 0 16.32 0 17 0 C17 6.93 17 13.86 17 21 C12.75197923 18.87598962 10.90934506 16.60847792 8.25 12.875 C7.63318359 12.03001953 7.63318359 12.03001953 7.00390625 11.16796875 C5.99523915 9.78398366 4.99660714 8.39269459 4 7 C3.67 11.62 3.34 16.24 3 21 C2.01 21 1.02 21 0 21 C0 14.07 0 7.14 0 0 Z " fill="#444E72" transform="translate(270,455)"/>
<path d="M0 0 C1.65322266 0.01740234 1.65322266 0.01740234 3.33984375 0.03515625 C4.99693359 0.04869141 4.99693359 0.04869141 6.6875 0.0625 C7.54214844 0.07410156 8.39679688 0.08570313 9.27734375 0.09765625 C9.60734375 1.08765625 9.93734375 2.07765625 10.27734375 3.09765625 C6.64734375 3.09765625 3.01734375 3.09765625 -0.72265625 3.09765625 C-0.72265625 5.07765625 -0.72265625 7.05765625 -0.72265625 9.09765625 C2.57734375 9.09765625 5.87734375 9.09765625 9.27734375 9.09765625 C9.27734375 10.08765625 9.27734375 11.07765625 9.27734375 12.09765625 C5.97734375 12.09765625 2.67734375 12.09765625 -0.72265625 12.09765625 C-0.72265625 14.40765625 -0.72265625 16.71765625 -0.72265625 19.09765625 C2.57734375 19.09765625 5.87734375 19.09765625 9.27734375 19.09765625 C9.27734375 19.75765625 9.27734375 20.41765625 9.27734375 21.09765625 C4.98734375 21.09765625 0.69734375 21.09765625 -3.72265625 21.09765625 C-3.74949061 17.78510299 -3.76941405 14.47276442 -3.78515625 11.16015625 C-3.79353516 10.21462891 -3.80191406 9.26910156 -3.81054688 8.29492188 C-3.81376953 7.39580078 -3.81699219 6.49667969 -3.8203125 5.5703125 C-3.82554932 4.73765869 -3.83078613 3.90500488 -3.83618164 3.04711914 C-3.6555465 -0.05475523 -3.13427484 0.11242019 0 0 Z " fill="#5D6585" transform="translate(360.72265625,454.90234375)"/>
<path d="M0 0 C0.66 0 1.32 0 2 0 C2 2.97 2 5.94 2 9 C5.96 9 9.92 9 14 9 C14 6.36 14 3.72 14 1 C14.99 0.67 15.98 0.34 17 0 C17 6.93 17 13.86 17 21 C16.01 21 15.02 21 14 21 C14 18.03 14 15.06 14 12 C10.04 12 6.08 12 2 12 C2 14.97 2 17.94 2 21 C1.34 21 0.68 21 0 21 C0 14.07 0 7.14 0 0 Z " fill="#50597B" transform="translate(327,455)"/>
<path d="M0 0 C0.66 0 1.32 0 2 0 C2.33 2.64 2.66 5.28 3 8 C3.93972656 7.13375 3.93972656 7.13375 4.8984375 6.25 C5.71570313 5.5075 6.53296875 4.765 7.375 4 C8.18710938 3.2575 8.99921875 2.515 9.8359375 1.75 C12 0 12 0 14 0 C12.43865142 4.21564117 9.38128204 6.19425533 6 9 C5.67 9.99 5.34 10.98 5 12 C5.556875 12.226875 6.11375 12.45375 6.6875 12.6875 C9.66159588 14.37550036 11.72008865 16.46676517 14 19 C14 19.66 14 20.32 14 21 C11.00779732 19.63629701 8.70973471 18.05091917 6.25 15.875 C5.63640625 15.33617187 5.0228125 14.79734375 4.390625 14.2421875 C3.93171875 13.83226562 3.4728125 13.42234375 3 13 C2.67 15.64 2.34 18.28 2 21 C1.34 21 0.68 21 0 21 C0 14.07 0 7.14 0 0 Z " fill="#222D59" transform="translate(228,455)"/>
<path d="M0 0 C6.0546875 -0.1953125 6.0546875 -0.1953125 8 0 C10 2 10 2 10.1875 4.5625 C10 7 10 7 9 8 C7.48071962 8.07179964 5.95832518 8.08392007 4.4375 8.0625 C3.61121094 8.05347656 2.78492188 8.04445313 1.93359375 8.03515625 C1.29550781 8.02355469 0.65742188 8.01195312 0 8 C0 5.36 0 2.72 0 0 Z " fill="#F3F3F6" transform="translate(202,457)"/>
<path d="M0 0 C0.66 0 1.32 0 2 0 C2 6.93 2 13.86 2 21 C-1.91301431 19.04349285 -3.17820765 17.90912723 -5.75 14.5625 C-6.36359375 13.78003906 -6.9771875 12.99757813 -7.609375 12.19140625 C-9 10 -9 10 -9 7 C-8.34 7 -7.68 7 -7 7 C-4.79855191 9.87442964 -2.95104804 12.94618567 -1 16 C-0.67 10.72 -0.34 5.44 0 0 Z " fill="#232F59" transform="translate(285,455)"/>
<path d="M0 0 C5.61 0 11.22 0 17 0 C17.33 0.66 17.66 1.32 18 2 C15.36 2 12.72 2 10 2 C10 8.27 10 14.54 10 21 C9.34 21 8.68 21 8 21 C8 14.73 8 8.46 8 2 C5.36 2 2.72 2 0 2 C0 1.34 0 0.68 0 0 Z " fill="#232F5A" transform="translate(298,455)"/>
<path d="M0 0 C3.96 0 7.92 0 12 0 C12 0.66 12 1.32 12 2 C8.7 2 5.4 2 2 2 C2 4.31 2 6.62 2 9 C5.3 9 8.6 9 12 9 C12 9.66 12 10.32 12 11 C8.04 11 4.08 11 0 11 C0 7.37 0 3.74 0 0 Z " fill="#2D3861" transform="translate(358,465)"/>
<path d="M0 0 C0.87269531 -0.03738281 1.74539062 -0.07476562 2.64453125 -0.11328125 C5.1875 0.3125 5.1875 0.3125 9.1875 4.3125 C3.2475 3.3225 3.2475 3.3225 -2.8125 2.3125 C-2.8125 4.9525 -2.8125 7.5925 -2.8125 10.3125 C-3.1425 10.3125 -3.4725 10.3125 -3.8125 10.3125 C-4.1425 13.9425 -4.4725 17.5725 -4.8125 21.3125 C-5.1425 21.3125 -5.4725 21.3125 -5.8125 21.3125 C-5.84138146 18.00001813 -5.85925799 14.68756833 -5.875 11.375 C-5.88337891 10.42947266 -5.89175781 9.48394531 -5.90039062 8.50976562 C-5.90361328 7.61064453 -5.90683594 6.71152344 -5.91015625 5.78515625 C-5.91539307 4.95250244 -5.92062988 4.11984863 -5.92602539 3.26196289 C-5.7030003 -0.56783356 -3.31163376 0.09212451 0 0 Z " fill="#525B7D" transform="translate(204.8125,454.6875)"/>
<path d="M0 0 C0.66 0 1.32 0 2 0 C2 3.3 2 6.6 2 10 C5.63 10 9.26 10 13 10 C13 10.33 13 10.66 13 11 C9.37 11 5.74 11 2 11 C2 14.3 2 17.6 2 21 C1.34 21 0.68 21 0 21 C0 14.07 0 7.14 0 0 Z " fill="#162350" transform="translate(327,455)"/>
<path d="M0 0 C0.66 0 1.32 0 2 0 C5 6.625 5 6.625 5 10 C2.36 10 -0.28 10 -3 10 C-2.39009109 6.44219804 -1.4216319 3.3171411 0 0 Z " fill="#E5E6EB" transform="translate(177,459)"/>
<path d="M0 0 C2.86562595 2.47906057 4.1617794 5.12161059 5.6875 8.5625 C6.12449219 9.53316406 6.56148437 10.50382812 7.01171875 11.50390625 C8 14 8 14 8 16 C7.01 16 6.02 16 5 16 C4.67 14.35 4.34 12.7 4 11 C0.37 11 -3.26 11 -7 11 C-7 10.67 -7 10.34 -7 10 C-4.03 10 -1.06 10 2 10 C1.505 8.63875 1.505 8.63875 1 7.25 C0 4 0 4 0 0 Z " fill="#354067" transform="translate(180,460)"/>
<path d="M0 0 C0.66 0 1.32 0 2 0 C2 6.93 2 13.86 2 21 C1.34 21 0.68 21 0 21 C0 15.72 0 10.44 0 5 C-0.66 5 -1.32 5 -2 5 C-1.34 3.35 -0.68 1.7 0 0 Z " fill="#15224F" transform="translate(154,455)"/>
<path d="M0 0 C0.99 0.33 1.98 0.66 3 1 C1.88407791 3.00507927 0.75701288 5.00396096 -0.375 7 C-1.31472656 8.670625 -1.31472656 8.670625 -2.2734375 10.375 C-2.84320313 11.24125 -3.41296875 12.1075 -4 13 C-4.66 13 -5.32 13 -6 13 C-8.5393228 9.58168085 -9.3636198 7.24223102 -9 3 C-6 6.75 -6 6.75 -6 9 C-5.34 9 -4.68 9 -4 9 C-3.71125 8.2575 -3.4225 7.515 -3.125 6.75 C-2.17697356 4.43260203 -1.15154089 2.22082885 0 0 Z " fill="#354067" transform="translate(151,460)"/>
<path d="M0 0 C0.33 0 0.66 0 1 0 C1.33 2.64 1.66 5.28 2 8 C4.97 8.495 4.97 8.495 8 9 C8 9.33 8 9.66 8 10 C6.02 10 4.04 10 2 10 C2 12.97 2 15.94 2 19 C1.34 19 0.68 19 0 19 C0 12.73 0 6.46 0 0 Z " fill="#121F4D" transform="translate(200,457)"/>
<path d="M0 0 C-1.59241408 4.29951803 -4.35540725 6.39671947 -8 9 C-8.99 8.67 -9.98 8.34 -11 8 C-9.54712339 6.66072279 -8.08752741 5.32873153 -6.625 4 C-5.81289062 3.2575 -5.00078125 2.515 -4.1640625 1.75 C-2 0 -2 0 0 0 Z " fill="#323D65" transform="translate(242,455)"/>
<path d="M0 0 C0.91007813 0.00902344 1.82015625 0.01804687 2.7578125 0.02734375 C3.45648438 0.03894531 4.15515625 0.05054688 4.875 0.0625 C4.875 0.3925 4.875 0.7225 4.875 1.0625 C4.26011719 1.07667969 3.64523438 1.09085937 3.01171875 1.10546875 C0.5401226 1.25132052 -1.72234098 1.45542245 -4.125 2.0625 C-6.11583177 4.4876788 -6.11583177 4.4876788 -7.125 7.0625 C-7.785 7.0625 -8.445 7.0625 -9.125 7.0625 C-8.52316251 5.04204558 -7.85193904 3.04138961 -7.125 1.0625 C-4.60024538 -0.19987731 -2.81299534 -0.03606404 0 0 Z " fill="#202C57" transform="translate(177.125,468.9375)"/>
<path d="M0 0 C0.66 0 1.32 0 2 0 C3.2890625 1.75 3.2890625 1.75 4.625 4 C5.07101562 4.7425 5.51703125 5.485 5.9765625 6.25 C6.31429688 6.8275 6.65203125 7.405 7 8 C6.01 8 5.02 8 4 8 C0 3.77142857 0 3.77142857 0 0 Z " fill="#2F3B63" transform="translate(276,462)"/>
<path d="M0 0 C3.24271506 0.5590888 4.93057424 1.4132178 7 4 C7 4.66 7 5.32 7 6 C3.63279613 4.60667426 2.0140476 3.0210714 0 0 Z " fill="#212D58" transform="translate(235,470)"/>
</svg>
